<svg xmlns="http://www.w3.org/2000/svg" viewBox="0 0 700 700"><g data-name="Capa_1"><path d="M350 699.5c-93.35 0-181.12-36.35-247.13-102.37C36.85 531.12.5 443.35.5 350s36.35-181.12 102.37-247.13S256.65.5 350 .5s181.12 36.35 247.13 102.37C663.14 168.88 699.5 256.65 699.5 350s-36.35 181.12-102.37 247.13S443.35 699.5 350 699.5Z" style="fill:#03110d"/><path d="M350 1a346.8 346.8 0 0 1 135.85 27.43 347.84 347.84 0 0 1 110.93 74.79 347.79 347.79 0 0 1 74.79 110.93C689.77 257.18 699 302.88 699 350s-9.23 92.82-27.43 135.85a347.84 347.84 0 0 1-74.79 110.93 347.79 347.79 0 0 1-110.93 74.79C442.82 689.77 397.12 699 350 699s-92.82-9.23-135.85-27.43c-41.56-17.58-78.88-42.74-110.93-74.79S46 527.4 28.43 485.85C10.23 442.82 1 397.12 1 350s9.23-92.82 27.43-135.85a347.84 347.84 0 0 1 74.79-110.93 347.79 347.79 0 0 1 110.93-74.79A346.8 346.8 0 0 1 350 1m0-1C156.7 0 0 156.7 0 350s156.7 350 350 350 350-156.7 350-350S543.3 0 350 0Z"/><text style="fill:#e0e0e0;font-family:RussoOne-Regular,&quot;Russo One&quot;;font-size:300px" transform="translate(109.55 435.1)"><tspan x="0" y="0">CM</tspan></text></g></svg>